<svg xmlns="http://www.w3.org/2000/svg" width="220" height="93" fill="none"><g clip-path="url(#a)" filter="url(#b)"><path fill="#040000" stroke="#fff" stroke-linejoin="round" stroke-width="23.101" d="M29.042 19.018c3.193 0 4.692 1.404 4.498 4.212l-.149 1.985c-.213 2.808-1.93 4.211-5.157 4.211H23.32c-3.245 0-4.753-1.403-4.521-4.211l.097-1.423h4.452l-.075.856c-.05.883.39 1.32 1.319 1.32h2.984c.864 0 1.337-.442 1.416-1.32l.097-.953c.084-.884-.357-1.32-1.318-1.32h-3.838c-3.226 0-4.735-1.414-4.521-4.235l.12-1.47c.214-2.807 1.931-4.21 5.157-4.21h10.56l-1.616 1.617c.423.65.595 1.52.516 2.594l-.098.906H29.6l.023-.344c.065-.883-.357-1.32-1.272-1.32h-2.956c-.915 0-1.402.442-1.467 1.32l-.051.465c-.065.883.357 1.32 1.272 1.32H29.042ZM55.884 12.557l-1.615 1.618-.952 11.044c-.246 2.808-1.963 4.212-5.156 4.212h-4.916c-3.226 0-4.725-1.404-4.498-4.212l1.077-12.658h4.424l-1.05 11.998c-.05.897.39 1.348 1.319 1.348H47.5c.864 0 1.337-.446 1.42-1.348l1.05-11.998h5.918l-.005-.004ZM75.175 12.557l-1.616 1.618c.423.65.594 1.52.516 2.593l-.27 3.087c-.213 2.808-1.93 4.212-5.157 4.212h-5.38l-.463 5.262H58.38l1.467-16.772H75.18h-.004ZM63.56 20.71h4.424c.914 0 1.383-.441 1.415-1.32l.172-2.152c.065-.883-.357-1.32-1.272-1.32h-4.302l-.441 4.797.004-.005ZM94 12.557l-3.42 3.426h-6.698l-.246 3.012h9.585l-3.351 3.356h-6.526l-.316 3.552h9.826l-3.42 3.426H78.187l1.467-16.772h14.352H94ZM109.132 23.109l2.224 6.22h-4.693l-2.102-5.876h-3.18l-.515 5.876h-4.424l1.467-16.772h15.331l-1.615 1.618c.422.65.594 1.52.515 2.593l-.195 2.45c-.148 2.022-1.086 3.324-2.813 3.896v-.005Zm-7.431-3.012h4.377c.915 0 1.393-.442 1.444-1.32l.121-1.544c.065-.883-.358-1.32-1.272-1.32h-4.303l-.367 4.188v-.004ZM143.457 12.557l-1.615 1.618-1.318 15.154h-4.452l.613-6.88h-5.723l-.613 6.88h-4.423l1.467-16.772h4.423l-.538 6.317h5.723l.538-6.317h5.918ZM162.771 12.46l-1.616 1.617c.423.65.595 1.52.516 2.594l-.757 8.544c-.213 2.808-1.931 4.211-5.157 4.211h-4.915c-3.226 0-4.725-1.403-4.498-4.211l.71-8.544c.214-2.808 1.931-4.212 5.157-4.212h10.56Zm-6.257 12.29.659-7.614c.065-.898-.357-1.348-1.272-1.348h-2.984c-.915 0-1.402.45-1.467 1.348l-.659 7.614c-.065.897.357 1.348 1.272 1.348h2.984c.914 0 1.402-.45 1.467-1.348ZM182.771 12.557l-1.615 1.618c.422.65.594 1.52.515 2.593l-.269 3.087c-.213 2.808-1.931 4.212-5.157 4.212h-5.379l-.465 5.262h-4.423l1.467-16.772h15.331-.005Zm-11.613 8.153h4.423c.915 0 1.384-.441 1.421-1.32l.172-2.152c.065-.883-.358-1.32-1.272-1.32h-4.303l-.441 4.797v-.005ZM201.593 12.557l-3.421 3.426h-6.698l-.246 3.012h9.585l-3.351 3.356h-6.526l-.316 3.552h9.826l-3.42 3.426h-11.247l1.467-16.772h14.352-.005ZM38.107 50.517c7.983 0 11.734 3.51 11.246 10.528l-.366 4.96c-.53 7.02-4.828 10.53-12.895 10.53H23.806c-8.109 0-11.878-3.51-11.307-10.53l.246-3.551h11.126l-.186 2.143c-.12 2.203.98 3.305 3.3 3.305h7.455c2.158 0 3.342-1.102 3.546-3.305l.246-2.39c.204-2.203-.896-3.304-3.3-3.304h-9.594c-8.067 0-11.836-3.529-11.307-10.59l.306-3.672c.53-7.02 4.828-10.53 12.895-10.53h26.406l-4.034 4.04c1.058 1.632 1.485 3.794 1.286 6.49l-.246 2.264H39.518l.06-.856c.163-2.203-.896-3.305-3.18-3.305h-7.393c-2.284 0-3.505 1.102-3.667 3.305l-.12 1.163c-.163 2.203.895 3.305 3.179 3.305h9.72-.01ZM105.22 34.354l-4.034 4.04L98.8 66c-.612 7.02-4.91 10.529-12.894 10.529H73.62c-8.067 0-11.818-3.51-11.247-10.53l2.688-31.646h11.06l-2.626 29.992c-.121 2.245.979 3.365 3.3 3.365h7.454c2.158 0 3.342-1.12 3.546-3.365l2.627-29.992h14.798ZM155.275 34.354l-4.034 4.04-3.3 37.89h-11.126l1.527-17.2h-14.301l-1.527 17.2h-11.061l3.667-41.93h11.061l-1.346 15.79h14.301l1.346-15.79h14.793ZM203.561 34.112l-4.033 4.04c1.058 1.631 1.485 3.793 1.281 6.489l-1.894 21.364c-.529 7.02-4.827 10.53-12.894 10.53h-12.287c-8.067 0-11.817-3.51-11.246-10.53l1.773-21.364c.529-7.02 4.827-10.53 12.894-10.53h26.406Zm-15.647 30.727 1.648-19.036c.163-2.245-.896-3.366-3.179-3.366h-7.459c-2.284 0-3.505 1.125-3.667 3.366l-1.653 19.036c-.162 2.245.896 3.365 3.18 3.365h7.454c2.284 0 3.505-1.12 3.667-3.365h.009Z"/><path fill="#040000" stroke="#040000" stroke-linejoin="round" stroke-width="15.779" d="M29.042 19.018c3.193 0 4.692 1.404 4.498 4.212l-.149 1.985c-.213 2.808-1.93 4.211-5.157 4.211H23.32c-3.245 0-4.753-1.403-4.521-4.211l.097-1.423h4.452l-.075.856c-.05.883.39 1.32 1.319 1.32h2.984c.864 0 1.337-.442 1.416-1.32l.097-.953c.084-.884-.357-1.32-1.318-1.32h-3.838c-3.226 0-4.735-1.414-4.521-4.235l.12-1.47c.214-2.807 1.931-4.21 5.157-4.21h10.56l-1.616 1.617c.423.65.595 1.52.516 2.594l-.098.906H29.6l.023-.344c.065-.883-.357-1.32-1.272-1.32h-2.956c-.915 0-1.402.442-1.467 1.32l-.051.465c-.065.883.357 1.32 1.272 1.32H29.042ZM55.884 12.557l-1.615 1.618-.952 11.044c-.246 2.808-1.963 4.212-5.156 4.212h-4.916c-3.226 0-4.725-1.404-4.498-4.212l1.077-12.658h4.424l-1.05 11.998c-.05.897.39 1.348 1.319 1.348H47.5c.864 0 1.337-.446 1.42-1.348l1.05-11.998h5.918l-.005-.004ZM75.175 12.557l-1.616 1.618c.423.65.594 1.52.516 2.593l-.27 3.087c-.213 2.808-1.93 4.212-5.157 4.212h-5.38l-.463 5.262H58.38l1.467-16.772H75.18h-.004ZM63.56 20.71h4.424c.914 0 1.383-.441 1.415-1.32l.172-2.152c.065-.883-.357-1.32-1.272-1.32h-4.302l-.441 4.797.004-.005ZM94 12.557l-3.42 3.426h-6.698l-.246 3.012h9.585l-3.351 3.356h-6.526l-.316 3.552h9.826l-3.42 3.426H78.187l1.467-16.772h14.352H94ZM109.132 23.109l2.224 6.22h-4.693l-2.102-5.876h-3.18l-.515 5.876h-4.424l1.467-16.772h15.331l-1.615 1.618c.422.65.594 1.52.515 2.593l-.195 2.45c-.148 2.022-1.086 3.324-2.813 3.896v-.005Zm-7.431-3.012h4.377c.915 0 1.393-.442 1.444-1.32l.121-1.544c.065-.883-.358-1.32-1.272-1.32h-4.303l-.367 4.188v-.004ZM143.457 12.557l-1.615 1.618-1.318 15.154h-4.452l.613-6.88h-5.723l-.613 6.88h-4.423l1.467-16.772h4.423l-.538 6.317h5.723l.538-6.317h5.918ZM162.771 12.46l-1.616 1.617c.423.65.595 1.52.516 2.594l-.757 8.544c-.213 2.808-1.931 4.211-5.157 4.211h-4.915c-3.226 0-4.725-1.403-4.498-4.211l.71-8.544c.214-2.808 1.931-4.212 5.157-4.212h10.56Zm-6.257 12.29.659-7.614c.065-.898-.357-1.348-1.272-1.348h-2.984c-.915 0-1.402.45-1.467 1.348l-.659 7.614c-.065.897.357 1.348 1.272 1.348h2.984c.914 0 1.402-.45 1.467-1.348ZM182.771 12.557l-1.615 1.618c.422.65.594 1.52.515 2.593l-.269 3.087c-.213 2.808-1.931 4.212-5.157 4.212h-5.379l-.465 5.262h-4.423l1.467-16.772h15.331-.005Zm-11.613 8.153h4.423c.915 0 1.384-.441 1.421-1.32l.172-2.152c.065-.883-.358-1.32-1.272-1.32h-4.303l-.441 4.797v-.005ZM201.593 12.557l-3.421 3.426h-6.698l-.246 3.012h9.585l-3.351 3.356h-6.526l-.316 3.552h9.826l-3.42 3.426h-11.247l1.467-16.772h14.352-.005ZM38.107 50.517c7.983 0 11.734 3.51 11.246 10.528l-.366 4.96c-.53 7.02-4.828 10.53-12.895 10.53H23.806c-8.109 0-11.878-3.51-11.307-10.53l.246-3.551h11.126l-.186 2.143c-.12 2.203.98 3.305 3.3 3.305h7.455c2.158 0 3.342-1.102 3.546-3.305l.246-2.39c.204-2.203-.896-3.304-3.3-3.304h-9.594c-8.067 0-11.836-3.529-11.307-10.59l.306-3.672c.53-7.02 4.828-10.53 12.895-10.53h26.406l-4.034 4.04c1.058 1.632 1.485 3.794 1.286 6.49l-.246 2.264H39.518l.06-.856c.163-2.203-.896-3.305-3.18-3.305h-7.393c-2.284 0-3.505 1.102-3.667 3.305l-.12 1.163c-.163 2.203.895 3.305 3.179 3.305h9.72-.01ZM105.22 34.354l-4.034 4.04L98.8 66c-.612 7.02-4.91 10.529-12.894 10.529H73.62c-8.067 0-11.818-3.51-11.247-10.53l2.688-31.646h11.06l-2.626 29.992c-.121 2.245.979 3.365 3.3 3.365h7.454c2.158 0 3.342-1.12 3.546-3.365l2.627-29.992h14.798ZM155.275 34.354l-4.034 4.04-3.3 37.89h-11.126l1.527-17.2h-14.301l-1.527 17.2h-11.061l3.667-41.93h11.061l-1.346 15.79h14.301l1.346-15.79h14.793ZM203.561 34.112l-4.033 4.04c1.058 1.631 1.485 3.793 1.281 6.489l-1.894 21.364c-.529 7.02-4.827 10.53-12.894 10.53h-12.287c-8.067 0-11.817-3.51-11.246-10.53l1.773-21.364c.529-7.02 4.827-10.53 12.894-10.53h26.406Zm-15.647 30.727 1.648-19.036c.163-2.245-.896-3.366-3.179-3.366h-7.459c-2.284 0-3.505 1.125-3.667 3.366l-1.653 19.036c-.162 2.245.896 3.365 3.18 3.365h7.454c2.284 0 3.505-1.12 3.667-3.365h.009Z"/><path fill="#040000" d="M200.516 14.17H21.021v48.363h179.495V14.17Z"/><path fill="#BCA3F0" d="M29.042 19.018c3.193 0 4.692 1.404 4.498 4.212l-.149 1.985c-.213 2.808-1.93 4.211-5.157 4.211H23.32c-3.245 0-4.753-1.403-4.521-4.211l.097-1.423h4.452l-.075.856c-.05.883.39 1.32 1.319 1.32h2.984c.864 0 1.337-.442 1.416-1.32l.097-.953c.084-.884-.357-1.32-1.318-1.32h-3.838c-3.226 0-4.735-1.414-4.521-4.235l.12-1.47c.214-2.807 1.931-4.21 5.157-4.21h10.56l-1.616 1.617c.423.65.595 1.52.516 2.594l-.098.906H29.6l.023-.344c.065-.883-.357-1.32-1.272-1.32h-2.956c-.915 0-1.402.442-1.467 1.32l-.051.465c-.065.883.357 1.32 1.272 1.32H29.042ZM55.884 12.557l-1.615 1.618-.952 11.044c-.246 2.808-1.963 4.212-5.156 4.212h-4.916c-3.226 0-4.725-1.404-4.498-4.212l1.077-12.658h4.424l-1.05 11.998c-.05.897.39 1.348 1.319 1.348H47.5c.864 0 1.337-.446 1.42-1.348l1.05-11.998h5.918l-.005-.004ZM75.175 12.557l-1.616 1.618c.423.65.594 1.52.516 2.593l-.27 3.087c-.213 2.808-1.93 4.212-5.157 4.212h-5.38l-.463 5.262H58.38l1.467-16.772H75.18h-.004ZM63.56 20.71h4.424c.914 0 1.383-.441 1.415-1.32l.172-2.152c.065-.883-.357-1.32-1.272-1.32h-4.302l-.441 4.797.004-.005ZM94 12.557l-3.42 3.426h-6.698l-.246 3.012h9.585l-3.351 3.356h-6.526l-.316 3.552h9.826l-3.42 3.426H78.187l1.467-16.772h14.352H94ZM109.132 23.109l2.224 6.22h-4.693l-2.102-5.876h-3.18l-.515 5.876h-4.424l1.467-16.772h15.331l-1.615 1.618c.422.65.594 1.52.515 2.593l-.195 2.45c-.148 2.022-1.086 3.324-2.813 3.896v-.005Zm-7.431-3.012h4.377c.915 0 1.393-.442 1.444-1.32l.121-1.544c.065-.883-.358-1.32-1.272-1.32h-4.303l-.367 4.188v-.004ZM143.457 12.557l-1.615 1.618-1.318 15.154h-4.452l.613-6.88h-5.723l-.613 6.88h-4.423l1.467-16.772h4.423l-.538 6.317h5.723l.538-6.317h5.918ZM162.771 12.46l-1.616 1.617c.423.65.595 1.52.516 2.594l-.757 8.544c-.213 2.808-1.931 4.211-5.157 4.211h-4.915c-3.226 0-4.725-1.403-4.498-4.211l.71-8.544c.214-2.808 1.931-4.212 5.157-4.212h10.56Zm-6.257 12.29.659-7.614c.065-.898-.357-1.348-1.272-1.348h-2.984c-.915 0-1.402.45-1.467 1.348l-.659 7.614c-.065.897.357 1.348 1.272 1.348h2.984c.914 0 1.402-.45 1.467-1.348ZM182.771 12.557l-1.615 1.618c.422.65.594 1.52.515 2.593l-.269 3.087c-.213 2.808-1.931 4.212-5.157 4.212h-5.379l-.465 5.262h-4.423l1.467-16.772h15.331-.005Zm-11.613 8.153h4.423c.915 0 1.384-.441 1.421-1.32l.172-2.152c.065-.883-.358-1.32-1.272-1.32h-4.303l-.441 4.797v-.005ZM201.593 12.557l-3.421 3.426h-6.698l-.246 3.012h9.585l-3.351 3.356h-6.526l-.316 3.552h9.826l-3.42 3.426h-11.247l1.467-16.772h14.352-.005ZM38.107 50.517c7.983 0 11.734 3.51 11.246 10.528l-.366 4.96c-.53 7.02-4.828 10.53-12.895 10.53H23.806c-8.109 0-11.878-3.51-11.307-10.53l.246-3.551h11.126l-.186 2.143c-.12 2.203.98 3.305 3.3 3.305h7.455c2.158 0 3.342-1.102 3.546-3.305l.246-2.39c.204-2.203-.896-3.304-3.3-3.304h-9.594c-8.067 0-11.836-3.529-11.307-10.59l.306-3.672c.53-7.02 4.828-10.53 12.895-10.53h26.406l-4.034 4.04c1.058 1.632 1.485 3.794 1.286 6.49l-.246 2.264H39.518l.06-.856c.163-2.203-.896-3.305-3.18-3.305h-7.393c-2.284 0-3.505 1.102-3.667 3.305l-.12 1.163c-.163 2.203.895 3.305 3.179 3.305h9.72-.01ZM105.22 34.354l-4.034 4.04L98.8 66c-.612 7.02-4.91 10.529-12.894 10.529H73.62c-8.067 0-11.818-3.51-11.247-10.53l2.688-31.646h11.06l-2.626 29.992c-.121 2.245.979 3.365 3.3 3.365h7.454c2.158 0 3.342-1.12 3.546-3.365l2.627-29.992h14.798ZM155.275 34.354l-4.034 4.04-3.3 37.89h-11.126l1.527-17.2h-14.301l-1.527 17.2h-11.061l3.667-41.93h11.061l-1.346 15.79h14.301l1.346-15.79h14.793ZM203.561 34.112l-4.033 4.04c1.058 1.631 1.485 3.793 1.281 6.489l-1.894 21.364c-.529 7.02-4.827 10.53-12.894 10.53h-12.287c-8.067 0-11.817-3.51-11.246-10.53l1.773-21.364c.529-7.02 4.827-10.53 12.894-10.53h26.406Zm-15.647 30.727 1.648-19.036c.163-2.245-.896-3.366-3.179-3.366h-7.459c-2.284 0-3.505 1.125-3.667 3.366l-1.653 19.036c-.162 2.245.896 3.365 3.18 3.365h7.454c2.284 0 3.505-1.12 3.667-3.365h.009Z"/></g><defs><clipPath id="a"><path fill="#fff" d="M2 2h212v84.989H2z"/></clipPath><filter id="b" width="220" height="92.989" x="0" y="0" color-interpolation-filters="sRGB" filterUnits="userSpaceOnUse"><feFlood flood-opacity="0" result="BackgroundImageFix"/><feColorMatrix in="SourceAlpha" result="hardAlpha" values="0 0 0 0 0 0 0 0 0 0 0 0 0 0 0 0 0 0 127 0"/><feOffset dx="2" dy="2"/><feGaussianBlur stdDeviation="2"/><feComposite in2="hardAlpha" operator="out"/><feColorMatrix values="0 0 0 0 0 0 0 0 0 0 0 0 0 0 0 0 0 0 0.1 0"/><feBlend in2="BackgroundImageFix" result="effect1_dropShadow_320_9723"/><feBlend in="SourceGraphic" in2="effect1_dropShadow_320_9723" result="shape"/></filter></defs></svg>