<svg width="146" height="26" viewBox="0 0 146 26" fill="none" xmlns="http://www.w3.org/2000/svg">
<g id="Group 40631">
<path id="Vector" d="M18.7269 2.03163L20.7266 0.0230867H12.3888C12.1992 0.017315 12.0096 0 11.8142 0C5.1486 0 0 4.43264 0 12.5822C0 20.7318 5.1486 25.1645 11.82 25.1645C18.4913 25.1645 23.6054 20.7318 23.6054 12.5822C23.6054 7.64746 21.6977 4.08634 18.7269 2.0374V2.03163ZM11.82 19.5486C8.45267 19.5486 6.60239 17.0784 6.60239 12.5822C6.60239 8.08611 8.45267 5.61583 11.82 5.61583C15.1872 5.61583 17.003 8.08611 17.003 12.5822C17.003 17.0784 15.1528 19.5486 11.82 19.5486Z" fill="#7B57FC"/>
<path id="Vector_2" d="M63.0371 10.1812L61.0145 9.70795C58.7562 9.23467 57.6127 8.52475 57.6472 7.2723C57.6817 6.12374 58.624 5.30993 60.7444 5.30993C62.8647 5.30993 64.0082 6.25649 64.1461 7.91296H70.3061C70.2888 5.45423 69.2947 3.42837 67.5422 2.04317L69.5763 0H60.8478H60.8536C60.8191 0 60.7846 0 60.7444 0C55.0212 0 50.9471 3.11093 50.9816 7.74558C50.9816 11.5318 53.6076 13.6615 57.8828 14.6081L60.3422 15.1506C63.0716 15.7567 64.0485 16.4377 64.0772 17.6209C64.0427 18.908 62.8647 19.8199 60.6754 19.8199C58.1529 19.8199 56.5669 18.6021 56.4692 16.3338H50.3438C50.4127 22.3537 54.4868 25.1241 60.7789 25.1241C67.071 25.1241 70.6106 22.4172 70.6451 17.6151C70.6106 13.8635 68.2892 11.2894 63.0371 10.1755V10.1812Z" fill="#7B57FC"/>
<path id="Vector_3" d="M140.394 1.58144L141.968 0H134.205H133.245L133.308 0.0404017C127.085 0.427103 122.391 4.8078 122.391 12.5822C122.391 20.3567 127.539 25.1645 134.211 25.1645C140.882 25.1645 145.996 20.7318 145.996 12.5822C145.996 7.26076 143.778 3.53226 140.405 1.58144H140.394ZM134.205 19.5486C130.838 19.5486 128.987 17.0784 128.987 12.5822C128.987 8.08611 130.838 5.61583 134.205 5.61583C137.572 5.61583 139.388 8.08611 139.388 12.5822C139.388 17.0784 137.538 19.5486 134.205 19.5486Z" fill="#7B57FC"/>
<path id="Vector_4" d="M94.1703 0.339844H87.7748V15.4905C87.7748 17.8569 86.0912 19.548 83.7007 19.548C81.3103 19.548 79.6612 17.8569 79.6612 15.4905V0.339844H73.2656V16.0676C73.2656 21.6142 77.4431 25.1292 83.7007 25.1292C89.9584 25.1292 94.1703 21.6142 94.1703 16.0676V3.32957L97.1469 0.339844H94.1703Z" fill="#7B57FC"/>
<path id="Vector_5" d="M119.287 0.339844H112.857V9.97853H103.864V0.339844H97.4688V24.8233H103.864V15.1846H112.857V24.8233H119.287V2.91978L121.856 0.339844H119.287Z" fill="#7B57FC"/>
<path id="Vector_6" d="M50.6099 0.339844H47.7138H41.3125V13.4935H41.1114L32.1933 0.339844H26.7344V24.8233H33.1357V11.6004H33.3023L42.3583 24.8233H47.7138V3.24876L50.6099 0.339844Z" fill="#7B57FC"/>
</g>
</svg>
