<svg width="117" height="20" viewBox="0 0 117 20" fill="none" xmlns="http://www.w3.org/2000/svg">
<g clip-path="url(#clip0_1903_116343)">
<path d="M15.0084 1.61505L16.611 0.0183528H9.92883C9.77686 0.0137646 9.62489 0 9.46831 0C4.12627 0 0 3.52374 0 10.0023C0 16.4808 4.12627 20.0046 9.47292 20.0046C14.8196 20.0046 18.9182 16.4808 18.9182 10.0023C18.9182 6.07938 17.3893 3.24845 15.0084 1.61964V1.61505ZM9.47292 15.5403C6.77427 15.5403 5.29139 13.5765 5.29139 10.0023C5.29139 6.42808 6.77427 4.46433 9.47292 4.46433C12.1716 4.46433 13.6268 6.42808 13.6268 10.0023C13.6268 13.5765 12.1439 15.5403 9.47292 15.5403Z" fill="white"/>
<path d="M50.5128 8.0936L48.8917 7.71737C47.0819 7.34113 46.1654 6.77678 46.1931 5.78114C46.2207 4.86809 46.976 4.22115 48.6753 4.22115C50.3746 4.22115 51.291 4.97362 51.4016 6.29043H56.3383C56.3245 4.33586 55.5278 2.7254 54.1232 1.62423L55.7535 0H48.7582H48.7628C48.7351 0 48.7075 0 48.6753 0C44.0885 0 40.8234 2.47304 40.851 6.15738C40.851 9.16724 42.9556 10.8603 46.3819 11.6128L48.3529 12.044C50.5404 12.5258 51.3233 13.0672 51.3463 14.0078C51.3187 15.031 50.3746 15.7559 48.62 15.7559C46.5983 15.7559 45.3273 14.7878 45.249 12.9846H40.3398C40.3951 17.7701 43.6602 19.9725 48.7029 19.9725C53.7456 19.9725 56.5824 17.8206 56.6101 14.0032C56.5824 11.0209 54.7219 8.97453 50.5128 8.08901V8.0936Z" fill="white"/>
<path d="M112.518 1.25717L113.78 0H107.558H106.789L106.84 0.0321175C101.852 0.339527 98.0898 3.82198 98.0898 10.0023C98.0898 16.1826 102.216 20.0046 107.563 20.0046C112.909 20.0046 117.008 16.4808 117.008 10.0023C117.008 5.77197 115.23 2.80798 112.527 1.25717H112.518ZM107.558 15.5403C104.86 15.5403 103.377 13.5765 103.377 10.0023C103.377 6.42808 104.86 4.46433 107.558 4.46433C110.257 4.46433 111.712 6.42808 111.712 10.0023C111.712 13.5765 110.229 15.5403 107.558 15.5403Z" fill="white"/>
<path d="M75.4764 0.270752H70.3508V12.3148C70.3508 14.196 69.0015 15.5403 67.0857 15.5403C65.17 15.5403 63.8483 14.196 63.8483 12.3148V0.270752H58.7227V12.7736C58.7227 17.1829 62.0706 19.9771 67.0857 19.9771C72.1008 19.9771 75.4764 17.1829 75.4764 12.7736V2.64744L77.8619 0.270752H75.4764Z" fill="white"/>
<path d="M95.6032 0.270752H90.4499V7.93306H83.2428V0.270752H78.1172V19.7339H83.2428V12.0716H90.4499V19.7339H95.6032V2.32168L97.6617 0.270752H95.6032Z" fill="white"/>
<path d="M40.5565 0.270752H38.2355H33.1053V10.7273H32.9441L25.7968 0.270752H21.4219V19.7339H26.5521V9.22235H26.6856L33.9434 19.7339H38.2355V2.58321L40.5565 0.270752Z" fill="white"/>
</g>
<defs>
<clipPath id="clip0_1903_116343">
<rect width="117" height="20" fill="white"/>
</clipPath>
</defs>
</svg>
