<svg width="23" height="23" viewBox="0 0 23 23" fill="none" xmlns="http://www.w3.org/2000/svg">
<path d="M20.8792 12.1362C20.8792 11.4212 20.8151 10.7337 20.6959 10.0737H11.1992V13.9741H16.6259C16.3921 15.2346 15.6817 16.3025 14.6138 17.0175V19.5475H17.8726C19.7792 17.7921 20.8792 15.2071 20.8792 12.1362Z" fill="#4285F4"/>
<path d="M11.1983 21.9907C13.9208 21.9907 16.2033 21.0878 17.8717 19.5478L14.6129 17.0178C13.71 17.6228 12.555 17.9803 11.1983 17.9803C8.57208 17.9803 6.34917 16.2066 5.55625 13.8232H2.1875V16.4357C3.84667 19.7312 7.25667 21.9907 11.1983 21.9907Z" fill="#34A853"/>
<path d="M5.55648 13.8231C5.35482 13.2181 5.24023 12.5718 5.24023 11.9072C5.24023 11.2427 5.35482 10.5964 5.55648 9.99141V7.37891H2.18774C1.4819 8.78403 1.11461 10.3348 1.11524 11.9072C1.11524 13.5343 1.50482 15.0743 2.18774 16.4356L5.55648 13.8231Z" fill="#FBBC05"/>
<path d="M11.1983 5.83415C12.6787 5.83415 14.0079 6.3429 15.0529 7.34206L17.945 4.44998C16.1987 2.8229 13.9162 1.82373 11.1983 1.82373C7.25667 1.82373 3.84667 4.08331 2.1875 7.37873L5.55625 9.99123C6.34917 7.6079 8.57208 5.83415 11.1983 5.83415Z" fill="#EA4335"/>
</svg>
