<svg width="24" height="24" viewBox="0 0 24 24" fill="none" xmlns="http://www.w3.org/2000/svg">
<path d="M12 0C12.8982 0.0323712 13.5703 0.427296 14.0097 1.21068C14.559 2.19476 15.1018 3.17237 15.6317 4.16293C16.601 5.97572 17.9903 7.36768 19.7932 8.33882C20.7625 8.86323 21.7189 9.39412 22.6882 9.91854C23.5153 10.3653 24 11.0386 24 11.9903C24 12.9355 23.5347 13.6218 22.7011 14.0685C21.6478 14.6382 20.5945 15.208 19.5476 15.7972C17.9321 16.7035 16.6656 17.9725 15.7609 19.5975C15.1987 20.6075 14.6365 21.6175 14.0937 22.6404C13.6413 23.495 12.9564 24 11.9871 24C11.0178 24 10.3392 23.4821 9.8869 22.6275C9.38286 21.6758 8.84652 20.737 8.33602 19.7853C7.37964 18.0178 6.02262 16.6517 4.26495 15.6935C3.26979 15.1497 2.2811 14.6059 1.27949 14.0685C0.465273 13.6283 0 12.9549 0 12.0162C0 11.0774 0.452337 10.4041 1.26655 9.95738C2.31986 9.38117 3.37318 8.81792 4.42003 8.22877C6.02907 7.32885 7.28917 6.07932 8.20032 4.46724C8.80775 3.39252 9.38934 2.30484 9.98385 1.23012C10.4233 0.43379 11.1018 0.0388517 12 0.00648056V0Z" fill="#CFB9FF"/>
</svg>
