<svg width="20" height="18" viewBox="0 0 20 18" fill="none" xmlns="http://www.w3.org/2000/svg">
<path d="M9.67188 0C11.3846 0 12.9686 0.333328 14.4241 0.999985C15.8795 1.66664 17.0301 2.57316 17.8759 3.71953C18.7216 4.86586 19.1445 6.11629 19.1445 7.47078C19.1445 8.82524 18.7216 10.0774 17.8759 11.2273C17.0301 12.3772 15.8812 13.2855 14.4293 13.9521C12.9774 14.6188 11.3916 14.9521 9.67188 14.9521C9.12918 14.9521 8.56883 14.9133 7.9909 14.8357C5.48176 16.5782 4.14617 17.46 3.98406 17.4812C3.90652 17.5094 3.8325 17.5059 3.76203 17.4706C3.73383 17.4495 3.7127 17.4212 3.69859 17.3859C3.68449 17.3507 3.67746 17.3189 3.67746 17.2907V17.2484C3.71977 16.9732 4.04043 15.8269 4.63953 13.8093C3.27924 13.1321 2.19912 12.2344 1.39916 11.1162C0.599199 9.99809 0.199219 8.78293 0.199219 7.47078C0.199219 6.11629 0.622105 4.86586 1.46788 3.71953C2.31365 2.57316 3.46425 1.66664 4.91969 0.999985C6.37512 0.333328 7.95918 0 9.67188 0Z" fill="black"/>
</svg>
