<svg width="24" height="21" viewBox="0 0 24 21" fill="none" xmlns="http://www.w3.org/2000/svg">
<path fill-rule="evenodd" clip-rule="evenodd" d="M12.0445 1.85859C10.3019 -0.0940666 7.29818 -0.416462 4.83947 0.495995C1.89281 1.59094 -0.508873 4.49865 0.0931315 8.86628C0.409976 12.1085 2.19698 14.7425 4.33885 16.7256C6.48072 18.7086 9.04082 20.0895 11.0306 20.8255C11.6896 21.0689 12.4184 21.0567 13.0711 20.7951C14.9658 20.0347 17.5323 18.6417 19.6995 16.6708C21.8667 14.6938 23.6981 12.072 23.9642 8.84192C24.3191 4.5412 21.9871 1.62742 19.1228 0.508136C16.7021 -0.44082 13.7998 -0.100144 12.0508 1.86468L12.0445 1.85859Z" fill="#EC77A3"/>
</svg>
